HIERARCHY
ROOT Hips
{
	OFFSET 0.000000 0.000000 0.000000
	CHANNELS 6 Xposition Yposition Zposition Xrotation Yrotation Zrotation
	JOINT Spine
	{
		OFFSET 0.000000 0.049001 0.073502
		CHANNELS 3 Xrotation Yrotation Zrotation
		JOINT Spine1
		{
			OFFSET 0.000000 0.017018 0.096514
			CHANNELS 3 Xrotation Yrotation Zrotation
			JOINT Spine2
			{
				OFFSET 0.000000 0.008542 0.097630
				CHANNELS 3 Xrotation Yrotation Zrotation
				JOINT Spine3
				{
					OFFSET 0.000000 0.000000 0.098003
					CHANNELS 3 Xrotation Yrotation Zrotation
					JOINT Neck
					{
						OFFSET 0.000000 -0.036751 0.257258
						CHANNELS 3 Xrotation Yrotation Zrotation
						JOINT Head
						{
							OFFSET 0.000000 -0.023400 0.132707
							CHANNELS 3 Xrotation Yrotation Zrotation
							End Site
							{
								OFFSET 0.000000 0.000000 0.000000
							}
						}
					}
					JOINT RightShoulder
					{
						OFFSET -0.030410 -0.050683 0.164214
						CHANNELS 3 Xrotation Yrotation Zrotation
						JOINT RightArm
						{
							OFFSET -0.151036 0.000000 0.000000
							CHANNELS 3 Xrotation Yrotation Zrotation
							JOINT RightForeArm
							{
								OFFSET -0.279942 0.000000 0.000000
								CHANNELS 3 Xrotation Yrotation Zrotation
								JOINT RightHand
								{
									OFFSET -0.265034 0.000000 0.000000
									CHANNELS 3 Xrotation Yrotation Zrotation
									JOINT RightHandEnd
									{
										OFFSET -0.071866 0.000000 0.000000
										CHANNELS 3 Xrotation Yrotation Zrotation
										End Site
										{
											OFFSET 0.000000 0.000000 0.000000
										}
									}
									JOINT RightHandThumb1
									{
										OFFSET -0.028746 -0.047911 -0.019164
										CHANNELS 3 Xrotation Yrotation Zrotation
										End Site
										{
											OFFSET 0.000000 0.000000 0.000000
										}
									}
								}
							}
						}
					}
					JOINT LeftShoulder
					{
						OFFSET 0.030410 -0.050683 0.164214
						CHANNELS 3 Xrotation Yrotation Zrotation
						JOINT LeftArm
						{
							OFFSET 0.151036 0.000000 0.000000
							CHANNELS 3 Xrotation Yrotation Zrotation
							JOINT LeftForeArm
							{
								OFFSET 0.279942 0.000000 0.000000
								CHANNELS 3 Xrotation Yrotation Zrotation
								JOINT LeftHand
								{
									OFFSET 0.265034 0.000000 0.000000
									CHANNELS 3 Xrotation Yrotation Zrotation
									JOINT LeftHandEnd
									{
										OFFSET 0.071866 0.000000 0.000000
										CHANNELS 3 Xrotation Yrotation Zrotation
										End Site
										{
											OFFSET 0.000000 0.000000 0.000000
										}
									}
									JOINT LeftHandThumb1
									{
										OFFSET 0.028746 -0.047911 -0.019164
										CHANNELS 3 Xrotation Yrotation Zrotation
										End Site
										{
											OFFSET 0.000000 0.000000 0.000000
										}
									}
								}
							}
						}
					}
				}
			}
		}
	}
	JOINT RightUpLeg
	{
		OFFSET -0.090216 0.000000 -0.026355
		CHANNELS 3 Xrotation Yrotation Zrotation
		JOINT RightLeg
		{
			OFFSET 0.000000 0.000000 -0.402871
			CHANNELS 3 Xrotation Yrotation Zrotation
			JOINT RightFoot
			{
				OFFSET 0.000000 0.000000 -0.414145
				CHANNELS 3 Xrotation Yrotation Zrotation
				JOINT RightToeBase
				{
					OFFSET 0.000000 -0.146359 -0.053270
					CHANNELS 3 Xrotation Yrotation Zrotation
					End Site
					{
						OFFSET 0.000000 0.000000 0.000000
					}
				}
			}
		}
	}
	JOINT LeftUpLeg
	{
		OFFSET 0.090216 0.000000 -0.026355
		CHANNELS 3 Xrotation Yrotation Zrotation
		JOINT LeftLeg
		{
			OFFSET 0.000000 0.000000 -0.402871
			CHANNELS 3 Xrotation Yrotation Zrotation
			JOINT LeftFoot
			{
				OFFSET 0.000000 0.000000 -0.414145
				CHANNELS 3 Xrotation Yrotation Zrotation
				JOINT LeftToeBase
				{
					OFFSET 0.000000 -0.146359 -0.053270
					CHANNELS 3 Xrotation Yrotation Zrotation
					End Site
					{
						OFFSET 0.000000 0.000000 0.000000
					}
				}
			}
		}
	}
}
MOTION
Frames: 13
Frame Time: 0.033333
-0.512732 -0.372158 0.898708 3.313000 -0.256000 88.080100 2.605200 3.335100 -0.635400 0.242800 0.746700 -0.187500 7.956800 0.080900 -3.727800 2.884600 0.404300 -1.535700 2.516400 -0.339800 0.673100 0.159200 0.489300 3.632400 8.817300 -3.700500 10.357100 -19.587100 -45.803800 4.127500 0.000000 0.000100 86.529100 -17.548600 28.019900 -4.082000 0.000000 0.000000 0.000000 0.000000 0.000000 0.000000 10.629100 1.376300 -9.084800 35.161300 38.228900 -55.039600 -0.000100 -0.000100 -94.149900 -15.488200 -47.080800 -3.200600 0.000000 0.000000 0.000000 0.000000 0.000000 0.000000 -20.365800 1.630400 -18.281000 17.204700 0.000000 0.000000 -0.284400 0.856900 -8.042400 -14.772000 0.000000 0.000000 5.026300 8.633000 25.799000 8.449600 0.000000 0.000000 -11.258200 -0.147200 -2.786700 -6.470900 0.000000 0.000000 
-0.494223 -0.377919 0.896981 2.850200 -1.092700 87.706300 2.596000 3.134800 -0.424800 0.158300 0.584800 -0.185400 8.056200 -0.132600 -3.583500 2.960700 0.330700 -1.381500 2.748200 -0.039000 0.746200 0.188300 1.094600 3.696500 9.372300 -4.106700 10.128100 -16.715000 -47.804200 6.018700 0.000000 0.000100 86.038800 -16.012400 28.645300 -4.181700 0.000000 0.000000 0.000000 0.000000 0.000000 0.000000 10.740400 1.850000 -9.272000 35.482000 35.138900 -53.102600 -0.000100 -0.000100 -91.918800 -13.743900 -46.762200 -1.184800 0.000000 0.000000 0.000000 0.000000 0.000000 0.000000 -17.900700 1.050200 -21.790500 16.015700 0.000000 0.000000 0.160600 3.492500 -5.526400 -3.915800 0.000000 0.000000 5.583200 7.442700 22.518800 11.707700 0.000000 0.000000 -13.374500 1.135100 1.124900 -6.574100 0.000000 0.000000 
-0.479585 -0.385072 0.895505 1.909000 -1.035200 87.465900 2.344000 2.587900 -0.431900 0.037300 0.330900 -0.194500 7.891500 -0.430600 -3.276600 2.908200 0.203500 -1.106800 2.773000 0.130500 0.824000 0.182800 1.646400 3.798800 9.915500 -4.177900 9.882400 -12.912700 -50.570500 8.494000 0.000000 0.000100 85.204000 -14.783300 29.259300 -4.425600 0.000000 0.000000 0.000000 0.000000 0.000000 0.000000 10.938200 1.994000 -9.200600 35.495300 33.118200 -50.914200 -0.000100 -0.000100 -89.615600 -11.499000 -46.475300 0.791600 0.000000 0.000000 0.000000 0.000000 0.000000 0.000000 -17.122200 -0.252200 -22.478700 16.423800 0.000000 0.000000 -0.496100 5.443400 -5.030000 0.937700 0.000000 0.000000 2.337300 5.235800 17.905400 19.952500 0.000000 0.000000 -16.254400 2.581000 6.737800 -8.035700 0.000000 0.000000 
-0.469044 -0.393857 0.893801 0.248800 -0.279200 87.912600 1.946700 1.371200 -0.563600 -0.044500 0.152600 -0.204900 7.559700 -0.811800 -3.135200 2.774100 0.046500 -0.805600 2.593500 -0.084000 0.674000 -0.064000 2.015100 3.881900 10.553200 -3.616300 9.530900 -8.628200 -54.468100 11.583400 0.000000 0.000100 84.003400 -13.737500 29.779500 -4.931400 0.000000 0.000000 0.000000 0.000000 0.000000 0.000000 11.388300 1.281800 -9.127100 34.561100 32.594900 -48.597600 -0.000100 -0.000100 -87.522100 -9.566100 -45.970400 2.449300 0.000000 0.000000 0.000000 0.000000 0.000000 0.000000 -17.251900 -2.532600 -22.387000 16.606400 0.000000 0.000000 -1.335700 6.382700 -5.463600 0.256200 0.000000 0.000000 -4.216600 1.825200 14.610400 32.313500 0.000000 0.000000 -16.920700 5.139500 10.787600 -12.454000 0.000000 0.000000 
-0.459257 -0.403685 0.891766 -1.813300 -0.061500 88.754000 2.022100 -0.295000 -0.471200 0.101300 0.053500 -0.206100 7.168900 -1.104100 -3.057500 2.659900 -0.072400 -0.559100 2.397700 -0.606500 0.239400 -0.393100 1.970700 3.745200 11.389200 -2.771200 9.136500 -3.833500 -58.839500 15.608600 0.000000 0.000100 82.738700 -13.399000 30.286000 -5.603800 0.000000 0.000000 0.000000 0.000000 0.000000 0.000000 11.829600 0.292000 -9.213400 32.332200 32.749600 -45.601100 -0.000100 -0.000100 -85.967500 -8.693700 -45.109300 3.657100 0.000000 0.000000 0.000000 0.000000 0.000000 0.000000 -16.417500 -5.237600 -23.456400 15.835000 0.000000 0.000000 -1.965000 7.085100 -5.547600 -1.119400 0.000000 0.000000 -10.943200 -2.142200 12.423700 44.903200 0.000000 0.000000 -13.791800 8.171100 12.852800 -18.350800 0.000000 0.000000 
-0.449128 -0.412740 0.890049 -3.583600 -0.560800 89.176700 2.582400 -1.752800 -0.172000 0.371000 -0.107400 -0.196200 6.848500 -1.176700 -2.571800 2.599200 -0.152400 -0.302800 2.327100 -1.126800 -0.271600 -0.575900 1.379100 3.252000 12.156600 -2.241500 8.966500 1.739000 -62.343200 20.760800 0.000000 0.000100 81.565500 -14.788700 30.984100 -6.062800 0.000000 0.000000 0.000000 0.000000 0.000000 0.000000 11.778300 -0.027400 -9.372600 29.113300 32.653900 -41.791500 -0.000100 -0.000100 -84.694700 -8.485500 -43.991400 4.623400 0.000000 0.000000 0.000000 0.000000 0.000000 0.000000 -14.469800 -7.594100 -25.633200 14.502200 0.000000 0.000000 -2.473400 7.792800 -4.235100 -0.805200 0.000000 0.000000 -16.475600 -5.469400 10.566300 54.994900 0.000000 0.000000 -10.013500 10.113600 14.077800 -22.400400 0.000000 0.000000 
-0.439514 -0.420093 0.889607 -4.756800 -1.115100 88.757900 3.137300 -2.647100 0.163800 0.603400 -0.312800 -0.159600 6.667800 -1.080300 -1.540800 2.574700 -0.250500 0.041300 2.443800 -1.536400 -0.658900 -0.572100 0.419000 2.490400 12.549900 -2.087400 9.142300 7.746600 -64.340600 26.635600 0.000000 0.000100 80.323000 -17.997800 31.898200 -5.963100 0.000000 0.000000 0.000000 0.000000 0.000000 0.000000 11.215900 0.310400 -9.355200 25.488000 32.358200 -37.949300 -0.000100 -0.000100 -83.147500 -8.123300 -42.805600 5.393400 0.000000 0.000000 0.000000 0.000000 0.000000 0.000000 -12.372700 -9.407700 -27.517700 13.029400 0.000000 0.000000 -2.878300 8.156000 -1.878900 -0.423300 0.000000 0.000000 -21.003100 -7.883700 9.566100 61.595100 0.000000 0.000000 -8.938100 10.303400 15.021800 -24.326400 0.000000 0.000000 
-0.430522 -0.425689 0.890770 -5.255900 -1.482500 87.995200 3.457600 -2.959000 0.449900 0.761300 -0.401500 -0.092100 6.631100 -0.891000 -0.416100 2.579000 -0.369700 0.396100 2.719300 -1.920500 -0.946500 -0.425400 -0.573900 1.641700 12.561600 -1.981400 9.483700 13.270200 -65.200700 32.332700 0.000000 0.000100 79.044000 -21.574400 32.762900 -5.404300 0.000000 0.000000 0.000000 0.000000 0.000000 0.000000 10.606200 0.627200 -9.109700 21.645700 32.231700 -34.670000 0.000000 -0.000100 -81.215800 -7.680700 -41.854400 5.670000 0.000000 0.000000 0.000000 0.000000 0.000000 0.000000 -10.510200 -10.562200 -28.556500 11.518400 0.000000 0.000000 -3.035300 8.094700 0.306900 -1.030900 0.000000 0.000000 -24.636700 -9.482600 9.527600 64.317900 0.000000 0.000000 -9.730600 9.708600 15.944700 -24.900800 0.000000 0.000000 
-0.421810 -0.429626 0.892589 -5.174200 -1.789600 87.684700 3.641700 -2.895500 0.663500 0.884900 -0.354500 -0.031700 6.606800 -0.627800 0.334900 2.593900 -0.419400 0.589300 3.066100 -2.259500 -1.262200 -0.154400 -1.399600 0.804100 12.393900 -1.747300 9.733300 17.562600 -65.491100 36.965100 0.000000 0.000100 78.230600 -23.827100 33.281700 -4.849300 0.000000 0.000000 0.000000 0.000000 0.000000 0.000000 10.207900 0.697400 -8.851600 17.638100 31.994700 -31.852200 0.000000 -0.000100 -79.227900 -7.756500 -41.298200 5.397800 0.000000 0.000000 0.000000 0.000000 0.000000 0.000000 -8.917000 -10.950600 -29.376300 10.283400 0.000000 0.000000 -3.121400 7.922100 1.679800 -1.534900 0.000000 0.000000 -27.230700 -10.153100 9.753900 63.302300 0.000000 0.000000 -10.102500 9.516000 16.753900 -24.224900 0.000000 0.000000 
-0.413730 -0.431864 0.894042 -4.797500 -2.041300 88.029400 3.828600 -2.741000 0.779600 0.990100 -0.307000 0.003800 6.473600 -0.311800 0.659500 2.586500 -0.325600 0.552100 3.381600 -2.396400 -1.606400 0.115800 -2.075400 0.008200 12.190200 -1.479800 9.830100 20.126300 -65.354700 39.743000 0.000000 0.000100 78.299100 -24.370700 33.216100 -4.577600 0.000000 0.000000 0.000000 0.000000 0.000000 0.000000 9.789300 0.900300 -8.730100 13.858200 31.107100 -29.346800 0.000000 -0.000100 -77.442300 -8.211100 -40.813800 4.978800 0.000000 0.000000 0.000000 0.000000 0.000000 0.000000 -7.837200 -10.750800 -30.087600 9.777300 0.000000 0.000000 -3.476900 7.841200 2.161500 -1.354400 0.000000 0.000000 -28.809800 -9.929800 9.643200 59.228000 0.000000 0.000000 -10.173800 9.740200 16.953100 -23.609300 0.000000 0.000000 
-0.406545 -0.432303 0.895292 -4.279300 -2.200500 88.679200 4.014800 -2.570600 0.773800 1.047600 -0.321200 0.016300 6.340800 0.037000 0.773300 2.569300 -0.121400 0.353800 3.618700 -2.301800 -1.891000 0.186100 -2.683200 -0.687000 12.011600 -1.317700 9.893900 20.622900 -64.702300 40.204400 0.000000 0.000100 79.023600 -24.015500 32.433200 -4.540400 0.000000 0.000000 0.000000 0.000000 0.000000 0.000000 9.150500 1.438400 -8.748000 10.739300 29.663500 -27.281300 0.000000 -0.000100 -75.961500 -8.395600 -39.955000 4.725300 0.000000 0.000000 0.000000 0.000000 0.000000 0.000000 -7.332800 -10.206000 -29.932600 9.975400 0.000000 0.000000 -4.042200 7.818300 1.557300 -1.279700 0.000000 0.000000 -29.319000 -9.105800 9.353800 52.556100 0.000000 0.000000 -10.632200 10.625400 15.980200 -24.461400 0.000000 0.000000 
-0.399230 -0.431066 0.896907 -3.597300 -2.393600 89.257600 4.088400 -2.310400 0.680800 1.040800 -0.315400 0.028600 6.383100 0.414800 0.802300 2.612600 0.100300 0.107800 3.911000 -2.132700 -2.092400 0.078200 -3.270200 -1.214400 11.927900 -1.249700 9.996400 19.356100 -63.583700 38.737800 0.000000 0.000100 79.804600 -23.656900 31.158200 -4.716400 0.000000 0.000000 0.000000 0.000000 0.000000 0.000000 8.554700 2.010800 -8.886000 8.395500 28.298900 -25.804300 0.000000 -0.000100 -74.929400 -8.290700 -38.689800 4.621400 0.000000 0.000000 0.000000 0.000000 0.000000 0.000000 -7.029600 -9.416300 -28.600100 10.551000 0.000000 0.000000 -4.564300 7.794900 -0.178000 -1.582400 0.000000 0.000000 -28.289100 -7.975200 9.567600 43.715200 0.000000 0.000000 -9.401200 12.479500 13.857500 -25.203300 0.000000 0.000000 
-0.390225 -0.428592 0.898591 -2.876800 -2.779100 89.502200 3.973600 -2.014000 0.567000 0.976500 -0.232600 0.050200 6.555800 0.797700 0.800200 2.754900 0.284300 -0.119200 4.552200 -2.037000 -2.240400 0.070800 -3.867600 -1.560200 11.956300 -1.192800 10.052700 17.368200 -62.109700 36.415600 0.000000 0.000100 80.298300 -23.690200 29.805500 -5.238400 0.000000 0.000000 0.000000 0.000000 0.000000 0.000000 8.313500 2.286500 -9.031300 6.946400 27.552400 -24.959700 0.000000 -0.000100 -74.487400 -8.441700 -37.248700 4.632500 0.000000 0.000000 0.000000 0.000000 0.000000 0.000000 -6.594500 -8.516300 -26.473500 11.527300 0.000000 0.000000 -5.131900 7.701300 -2.580800 -1.697800 0.000000 0.000000 -25.480900 -6.825500 10.897700 34.394000 0.000000 0.000000 -4.721700 13.109300 11.083500 -22.255200 0.000000 0.000000 
